<svg xmlns="http://www.w3.org/2000/svg" viewBox="0 0 47.13 47.13"><g id="Layer_2" data-name="Layer 2"><g id="Layer_1-2" data-name="Layer 1"><path d="M41.81,0H11.61L0,12.3V41.81a5.33,5.33,0,0,0,5.32,5.32H41.81a5.33,5.33,0,0,0,5.32-5.32V5.32A5.33,5.33,0,0,0,41.81,0Zm-30,4.14V9.48A2.32,2.32,0,0,1,9.51,11.8H4.6Zm32.3,37.67a2.32,2.32,0,0,1-2.32,2.32H5.32A2.32,2.32,0,0,1,3,41.81v-27H9.51a5.32,5.32,0,0,0,5.32-5.32V3h27a2.32,2.32,0,0,1,2.32,2.32Z" style="fill:#fff"/><path d="M27.72,24.4a6.3,6.3,0,1,0-6.29-6.3A6.31,6.31,0,0,0,27.72,24.4Zm0-9.6a3.3,3.3,0,1,1-3.29,3.3A3.3,3.3,0,0,1,27.72,14.8Z" style="fill:#fff"/><path d="M33.48,26.51H22a6.94,6.94,0,0,0,0,13.88H33.48a6.94,6.94,0,1,0,0-13.88Zm0,10.88H22a3.94,3.94,0,1,1,0-7.88H33.48a3.94,3.94,0,1,1,0,7.88Z" style="fill:#fff"/></g></g></svg>