<svg xmlns="http://www.w3.org/2000/svg" viewBox="0 0 47.13 47.13"><g id="Layer_2" data-name="Layer 2"><g id="Layer_1-2" data-name="Layer 1"><path d="M23.57,0A23.57,23.57,0,1,0,47.13,23.57,23.59,23.59,0,0,0,23.57,0Zm0,44.13A20.57,20.57,0,0,1,3.05,24.56l3.86.07,0-3L3.1,21.56A20.43,20.43,0,0,1,8.24,9.9l2.56,2.47,2.08-2.16L10.38,7.8a20.44,20.44,0,0,1,11.7-4.72L22,6.43l3,.06.06-3.41A20.42,20.42,0,0,1,36.75,7.8l-2.5,2.41,2.08,2.16L38.89,9.9A20.42,20.42,0,0,1,44,21.61l-3.81-.07,0,3,3.91.07A20.58,20.58,0,0,1,23.57,44.13Z" style="fill:#fff"/><path d="M24.66,18h.41V8.42h-3V18h.4a5.66,5.66,0,1,0,2.19,0Zm-1.09,8.2a2.66,2.66,0,1,1,2.65-2.65A2.66,2.66,0,0,1,23.57,26.22Z" style="fill:#fff"/></g></g></svg>