<svg xmlns="http://www.w3.org/2000/svg" viewBox="0 0 47.13 47.13"><g id="Layer_2" data-name="Layer 2"><g id="Layer_1-2" data-name="Layer 1"><path d="M41.81,0H11.61L0,12.3V41.81a5.33,5.33,0,0,0,5.32,5.32H41.81a5.33,5.33,0,0,0,5.32-5.32V5.32A5.33,5.33,0,0,0,41.81,0Zm-30,4.14V9.48A2.32,2.32,0,0,1,9.51,11.8H4.6Zm32.3,37.67a2.32,2.32,0,0,1-2.32,2.32H5.32A2.32,2.32,0,0,1,3,41.81v-27H9.51a5.32,5.32,0,0,0,5.32-5.32V3h27a2.32,2.32,0,0,1,2.32,2.32Z" style="fill:#fff"/><polygon points="19.36 28.09 14.55 21.45 12.12 23.21 18.76 32.37 36.96 18.08 35.11 15.72 19.36 28.09" style="fill:#fff"/></g></g></svg>