<svg xmlns="http://www.w3.org/2000/svg" viewBox="0 0 47.13 47.13"><g id="Layer_2" data-name="Layer 2"><g id="Layer_1-2" data-name="Layer 1"><path d="M41.81,0H11.61L0,12.3V41.81a5.33,5.33,0,0,0,5.32,5.32H41.81a5.33,5.33,0,0,0,5.32-5.32V5.32A5.33,5.33,0,0,0,41.81,0Zm-30,4.14V9.48A2.32,2.32,0,0,1,9.51,11.8H4.6Zm32.3,37.67a2.32,2.32,0,0,1-2.32,2.32H5.32A2.32,2.32,0,0,1,3,41.81v-27H9.51a5.32,5.32,0,0,0,5.32-5.32V3h27a2.32,2.32,0,0,1,2.32,2.32Z" style="fill:#fff"/><path d="M36.83,24.91h-3V25H29v-4h3.21v-9.4h-9.4v9.4H26v4H22.12v-.07h-3V30.7H15.9v9.39h9.4V30.7H22.12V28H33.83V30.7h-3.3v9.39h9.39V30.7H36.83Zm-11-10.37h3.4v3.4h-3.4ZM22.3,37.09H18.9V33.7h3.4Zm14.62,0H33.53V33.7h3.39Z" style="fill:#fff"/></g></g></svg>