<svg xmlns="http://www.w3.org/2000/svg" viewBox="0 0 42.65 47.45"><g id="Layer_2" data-name="Layer 2"><g id="Layer_1-2" data-name="Layer 1"><path d="M9.07,26.71H33.82v6.15h3V23.57h-3v.14H22.63V14.19A7.14,7.14,0,0,0,21.52,0h-.78a7.14,7.14,0,0,0-1.11,14.19v9.52H9.07v-.14h-3v9.29h3ZM16.6,7.14A4.15,4.15,0,0,1,20.74,3h.78a4.15,4.15,0,1,1,0,8.29h-.78A4.15,4.15,0,0,1,16.6,7.14Z" style="fill:#fff"/><path d="M7.92,33.16H7.14a7.15,7.15,0,0,0,0,14.29h.78a7.15,7.15,0,1,0,0-14.29Zm0,11.29H7.14a4.15,4.15,0,0,1,0-8.29h.78a4.15,4.15,0,1,1,0,8.29Z" style="fill:#fff"/><path d="M35.51,33.16h-.78a7.15,7.15,0,0,0,0,14.29h.78a7.15,7.15,0,0,0,0-14.29Zm0,11.29h-.78a4.15,4.15,0,0,1,0-8.29h.78a4.15,4.15,0,0,1,0,8.29Z" style="fill:#fff"/></g></g></svg>