<svg xmlns="http://www.w3.org/2000/svg" viewBox="0 0 47.13 47.13"><g id="Layer_2" data-name="Layer 2"><g id="Layer_1-2" data-name="Layer 1"><path d="M41.81,0H11.61L0,12.3V41.81a5.33,5.33,0,0,0,5.32,5.32H41.81a5.33,5.33,0,0,0,5.32-5.32V5.32A5.33,5.33,0,0,0,41.81,0Zm-30,4.14V9.48a2.32,2.32,0,0,1-2.3,2.32H4.6Zm32.3,37.67a2.32,2.32,0,0,1-2.32,2.32H5.32A2.32,2.32,0,0,1,3,41.81v-27H9.51a5.32,5.32,0,0,0,5.32-5.32V3h27a2.32,2.32,0,0,1,2.32,2.32Z" style="fill:#fff"/><path d="M12.52,35.4,13.69,34l3.92-4.62c.66-.76,1.31-1.53,2-2.31.15-.18.24-.22.43,0,1.51,1.59,3.23,2.94,4.87,4.39.14.13.22.08.32,0l2.89-3.06,3.27-3.47,1.94-2.07a2,2,0,0,0,.19-.22.39.39,0,0,0-.29-.05H30.78a.82.82,0,0,1-.84-.93A.76.76,0,0,1,30.7,21h5c.35,0,.54.23.55.62v4.85a.84.84,0,0,1-.23.66.71.71,0,0,1-.72.2.86.86,0,0,1-.63-.63,2,2,0,0,1,0-.35V23.64l-.45.47-6.64,7.17-2.22,2.4c-.13.14-.21.14-.35,0l-3.23-3c-.53-.49-1.07-1-1.59-1.48-.15-.14-.25-.12-.37,0l-6.55,7.43-.7.78s-.09.08-.06.14.09,0,.14,0h22.8a.85.85,0,0,1,.84.84.77.77,0,0,1-.85.74H11.16c-.24,0-.32-.09-.3-.32v-17a.83.83,0,0,1,.59-.92.78.78,0,0,1,1,.62,4.89,4.89,0,0,1,0,.54V35.23C12.48,35.28,12.46,35.34,12.52,35.4Z" style="fill:#fff;stroke:#fff;stroke-miterlimit:10"/><line x1="18.39" y1="8.97" x2="26.72" y2="8.97" style="fill:#fff;stroke:#fff;stroke-linecap:round;stroke-linejoin:round;stroke-width:3px"/><line x1="18.39" y1="15.73" x2="36.95" y2="15.73" style="fill:#fff;stroke:#fff;stroke-linecap:round;stroke-linejoin:round;stroke-width:3px"/></g></g></svg>