<svg xmlns="http://www.w3.org/2000/svg" viewBox="0 0 47.13 47.13"><g id="Layer_2" data-name="Layer 2"><g id="Layer_1-2" data-name="Layer 1"><path d="M41.81,0H11.61L0,12.31v29.5a5.32,5.32,0,0,0,5.32,5.32H41.81a5.32,5.32,0,0,0,5.32-5.32V5.32A5.33,5.33,0,0,0,41.81,0Zm-30,4.14V9.48A2.32,2.32,0,0,1,9.51,11.8H4.6Zm32.3,37.67a2.32,2.32,0,0,1-2.32,2.32H5.32A2.32,2.32,0,0,1,3,41.81v-27H9.51a5.32,5.32,0,0,0,5.32-5.32V3h27a2.32,2.32,0,0,1,2.32,2.32Z" style="fill:#fff"/><path d="M26.25,12.44A14.17,14.17,0,1,0,40.42,26.61,14.18,14.18,0,0,0,26.25,12.44Zm0,25.33A11.17,11.17,0,1,1,37.42,26.61,11.18,11.18,0,0,1,26.25,37.77Z" style="fill:#fff"/><polygon points="27.82 20.72 24.82 20.72 24.82 25.3 24.72 25.3 24.72 28.3 34.31 28.3 34.31 25.3 27.82 25.3 27.82 20.72" style="fill:#fff"/></g></g></svg>