<svg xmlns="http://www.w3.org/2000/svg" viewBox="0 0 47.86 47.86"><g id="Layer_2" data-name="Layer 2"><g id="Layer_1-2" data-name="Layer 1"><path d="M47.86,22.43h-3.1A20.37,20.37,0,0,0,25.43,3.48V0h-3V3.53A20.39,20.39,0,0,0,4.16,22.43H0v3H4.18A20.38,20.38,0,0,0,22.43,44.06v3.8h3V44.11A20.37,20.37,0,0,0,44.75,25.43h3.11ZM24.46,41.16A17.37,17.37,0,1,1,41.83,23.79,17.39,17.39,0,0,1,24.46,41.16Z" style="fill:#fff"/><path d="M24.46,18.14a5.66,5.66,0,1,0,5.66,5.65A5.67,5.67,0,0,0,24.46,18.14Zm0,8.31a2.66,2.66,0,1,1,2.66-2.66A2.67,2.67,0,0,1,24.46,26.45Z" style="fill:#fff"/></g></g></svg>