<svg xmlns="http://www.w3.org/2000/svg" viewBox="0 0 47.86 47.86"><g id="Layer_2" data-name="Layer 2"><g id="Layer_1-2" data-name="Layer 1"><path d="M47.86,22.43h-3.1A20.37,20.37,0,0,0,25.43,3.48V0h-3V3.53A20.39,20.39,0,0,0,4.16,22.43H0v3H4.18A20.38,20.38,0,0,0,22.43,44.06v3.8h3V44.11A20.37,20.37,0,0,0,44.75,25.43h3.11ZM24.46,41.16A17.37,17.37,0,1,1,41.83,23.79,17.39,17.39,0,0,1,24.46,41.16Z" style="fill:#fff"/><path d="M30.22,13a4.82,4.82,0,0,0-3.54,1.59c-5.69,5.68-3.91,3.87-9.62,9.54a1.84,1.84,0,0,0-.47.72c-.76,2.56-1.54,5.11-2.29,7.68a.93.93,0,0,0,1,1.25,1.81,1.81,0,0,0,.56-.12l6.94-2.26a2.57,2.57,0,0,0,1-.69c3.5-3.45,7.8-7.42,10-9.88,1.22-1.37,1.81-3,.89-4.71A5.15,5.15,0,0,0,30.22,13Zm-8.6,16.73c-1.62.57-3.25,1.12-5.06,1.74.57-1.8,1.07-3.39,1.57-5,.1-.33.35-.37.63-.25a5.59,5.59,0,0,1,3,3C21.87,29.4,21.9,29.63,21.62,29.73Zm8.47-7.84c-4.53,4.49-1.58,1.5-6.11,6-.28.28-.49.47-.74,0a7.15,7.15,0,0,0-3.19-3.13c-.45-.25-.42-.37-.1-.7,4.56-4.53,1.63-1.59,6.16-6.15a.85.85,0,0,1,1.08-.24,5.92,5.92,0,0,1,3,3c.08.2.13.41.17.53A.77.77,0,0,1,30.09,21.89Zm2.28-2.3c-.23.29-.37.29-.54-.07a7.49,7.49,0,0,0-3.26-3.37c-.41-.23-.4-.36,0-.63A2.47,2.47,0,0,1,30.1,15,3.43,3.43,0,0,1,33,17,2.36,2.36,0,0,1,32.37,19.59Z" style="fill:#fff"/></g></g></svg>