<svg xmlns="http://www.w3.org/2000/svg" viewBox="0 0 322.9 167.68"><g id="design" data-name="Layer"><path d="M149.27,109.65a2.5,2.5,0,0,1-1.78-.74L113,73.85a2.5,2.5,0,1,1,3.56-3.51l31.47,32c10-34.92,32.21-54,66-56.85a2.5,2.5,0,1,1,.42,5c-32.74,2.73-53.83,22-62.68,57.34a2.47,2.47,0,0,1-1.76,1.8A2.5,2.5,0,0,1,149.27,109.65Z" style="fill:#2aa2ff"/><path d="M110.44,67.77a2.5,2.5,0,0,1-2.5-2.43,70.91,70.91,0,0,1,7.54-31.09C122.81,19.81,138.83,2.14,173.59,0a2.43,2.43,0,0,1,1.94.74l37.15,37.92a2.5,2.5,0,1,1-3.58,3.5L172.76,5.07c-25.4,1.83-43.17,12.41-52.82,31.44a66.64,66.64,0,0,0-7,28.69,2.5,2.5,0,0,1-2.43,2.57Z" style="fill:#4b545c"/><path d="M184,42.68a2.48,2.48,0,0,1-1.83-.79L161.4,19.66a2.5,2.5,0,1,1,3.66-3.41l20.75,22.23a2.49,2.49,0,0,1-1.83,4.2Z" style="fill:#4b545c"/><path d="M168,53.25a2.47,2.47,0,0,1-1.79-.76L144.05,29.68a2.5,2.5,0,0,1,3.58-3.48L169.79,49a2.5,2.5,0,0,1,0,3.53A2.46,2.46,0,0,1,168,53.25Z" style="fill:#4b545c"/><path d="M154.46,67.55a2.45,2.45,0,0,1-1.76-.73L130.74,45a2.5,2.5,0,1,1,3.52-3.54l22,21.83a2.49,2.49,0,0,1,0,3.53A2.46,2.46,0,0,1,154.46,67.55Z" style="fill:#4b545c"/></g></svg>